<?xml version="1.0" encoding="UTF-8" standalone="no"?>
<!-- Created with Inkscape (http://www.inkscape.org/) -->

<svg
   version="1.1"
   id="svg408"
   width="3721.8516"
   height="579.85321"
   viewBox="0 0 3721.8515 579.85321"
   sodipodi:docname="buda (1).png"
   inkscape:export-filename="buda (1).svg"
   inkscape:export-xdpi="96"
   inkscape:export-ydpi="96"
   xmlns:inkscape="http://www.inkscape.org/namespaces/inkscape"
   xmlns:sodipodi="http://sodipodi.sourceforge.net/DTD/sodipodi-0.dtd"
   xmlns:xlink="http://www.w3.org/1999/xlink"
   xmlns="http://www.w3.org/2000/svg"
   xmlns:svg="http://www.w3.org/2000/svg">
  <defs
     id="defs412">
    <linearGradient
       inkscape:collect="always"
       id="linearGradient3401">
      <stop
         style="stop-color:#395967;stop-opacity:1;"
         offset="0"
         id="stop3397" />
      <stop
         style="stop-color:#3d6070;stop-opacity:1;"
         offset="1"
         id="stop3399" />
    </linearGradient>
    <linearGradient
       inkscape:collect="always"
       id="linearGradient2466">
      <stop
         style="stop-color:#3e606f;stop-opacity:1;"
         offset="0"
         id="stop2462" />
      <stop
         style="stop-color:#385765;stop-opacity:1;"
         offset="1"
         id="stop2464" />
    </linearGradient>
    <linearGradient
       id="linearGradient2454"
       inkscape:swatch="solid">
      <stop
         style="stop-color:#3e606f;stop-opacity:1;"
         offset="0"
         id="stop2452" />
    </linearGradient>
    <linearGradient
       inkscape:collect="always"
       id="linearGradient2401">
      <stop
         style="stop-color:#fcfff5;stop-opacity:1;"
         offset="0"
         id="stop2397" />
      <stop
         style="stop-color:#f5f5db;stop-opacity:1;"
         offset="1"
         id="stop2399" />
    </linearGradient>
    <linearGradient
       inkscape:collect="always"
       xlink:href="#linearGradient2401"
       id="linearGradient2403"
       x1="272.40149"
       y1="0"
       x2="346.4769"
       y2="1162.1039"
       gradientUnits="userSpaceOnUse" />
    <linearGradient
       inkscape:collect="always"
       xlink:href="#linearGradient2466"
       id="linearGradient2468"
       x1="272.40149"
       y1="533.69019"
       x2="340.31171"
       y2="-46.08741"
       gradientUnits="userSpaceOnUse" />
    <linearGradient
       inkscape:collect="always"
       xlink:href="#linearGradient3401"
       id="linearGradient3403"
       x1="494.64523"
       y1="685.85077"
       x2="3826.7742"
       y2="-145.89207"
       gradientUnits="userSpaceOnUse"
       gradientTransform="translate(-18)" />
  </defs>
  <sodipodi:namedview
     id="namedview410"
     pagecolor="#ffffff"
     bordercolor="#000000"
     borderopacity="0.25"
     inkscape:showpageshadow="2"
     inkscape:pageopacity="0.0"
     inkscape:pagecheckerboard="0"
     inkscape:deskcolor="#d1d1d1"
     showgrid="false" />
  <g
     inkscape:groupmode="layer"
     inkscape:label="Image"
     id="g414"
     transform="translate(101.77977,19.947264)">
    <g
       id="g4136"
       transform="translate(-20.918782)">
      <g
         id="g2680"
         transform="matrix(1.0864978,0,0,1.0864978,-86.897997,-19.947257)">
        <rect
           style="opacity:1;fill:url(#linearGradient2468);fill-opacity:1;stroke-width:1.7518;stroke-linecap:round"
           id="rect1646"
           width="533.69019"
           height="533.69019"
           x="5.5563812"
           y="0"
           ry="44.939808" />
        <path
           style="fill:url(#linearGradient2403);fill-opacity:1"
           d="m 103.90868,504.87584 c -7.33556,-2.53466 -12.63881,-6.5113 -16.65215,-12.48662 -4.97943,-7.41368 -5.93731,-11.3704 -5.44849,-22.50596 0.34751,-7.91639 0.88986,-10.54156 3.0257,-14.64531 3.45777,-6.64367 8.95913,-11.78086 16.2751,-15.19774 l 6,-2.80226 103.94363,-0.27696 c 57.16899,-0.15233 103.74399,-0.0844 103.5,0.15089 -0.244,0.23532 -5.10919,2.47692 -10.81153,4.98134 -13.49209,5.9256 -24.56391,12.2731 -44.9824,25.78851 -27.3271,18.08836 -56.51327,31.20971 -81.88911,36.81523 -8.16216,1.80302 -12.65102,2.03718 -38.5,2.00834 -25.50587,-0.0285 -29.92788,-0.26321 -34.46075,-1.82946 z m 10.04949,-41.08061 c 5.09297,-1.93634 4.16709,-8.34567 -1.38165,-9.56438 -6.40835,-1.40751 -10.78921,5.41742 -5.74517,8.9504 2.57967,1.80687 3.72889,1.90587 7.12682,0.61398 z m 98.232,-1.49841 c 1.78408,-2.44112 1.78408,-3.67662 0,-6.11774 -1.35705,-1.85682 -3.12696,-1.95213 -40.75,-2.19449 -43.327,-0.2791 -44.33133,-0.16008 -44.33133,5.25336 0,5.41344 1.00433,5.53246 44.33133,5.25336 37.62304,-0.24236 39.39295,-0.33767 40.75,-2.19449 z m -4.51443,44.09015 c 0.23821,-0.21111 4.9331,-2.27904 10.4331,-4.59541 15.08722,-6.35409 27.14028,-13.03989 47,-26.07077 26.84111,-17.61169 45.69516,-26.95715 67.5,-33.458 16.02697,-4.77824 19.14331,-5.02484 63.5,-5.02484 h 42 l 6,2.80226 c 7.27733,3.39884 12.77622,8.51454 16.3361,15.19774 2.44008,4.58093 2.66332,5.96386 2.6636,16.5 2.6e-4,9.99686 -0.30183,12.11339 -2.31122,16.19281 -3.21569,6.52844 -9.35838,12.52659 -16.0331,15.65583 l -5.65538,2.65136 -115.9331,0.26643 c -63.7632,0.14654 -115.7382,0.0937 -115.5,-0.11741 z m -46.32787,-88.96348 c -27.94359,-10.82593 -31.6719,-13.15587 -36.62735,-22.88964 -5.29726,-10.40516 -4.9829,-13.70708 5.26369,-55.28837 4.74262,-19.24586 9.53883,-37.74471 10.65825,-41.10856 3.95556,-11.88646 10.87093,-19.99913 22.05911,-25.87836 l 6.68613,-3.51346 0.58413,21.24643 c 1.39692,50.81007 1.62986,76.86004 0.68205,76.27426 -0.80401,-0.49691 -6.04504,6.354 -6.04504,7.90188 0,0.25821 13.95786,8.40871 31.01746,18.11223 l 31.01745,17.64275 -2.62509,2.0649 c -3.89524,3.06399 -8.40982,9.72083 -8.40982,12.40044 v 2.34996 l -15.25,-0.0545 -15.25,-0.0545 -23.76097,-9.20548 z m 64.26097,8.71883 c 0,-1.84666 4.73964,-6.74674 8.33421,-8.61633 5.75928,-2.99549 15.85354,-2.95786 24.89865,0.0928 3.70307,1.24895 7.73847,3.08511 8.96756,4.08037 1.91311,1.54914 2.04187,2.04193 0.8947,3.42417 -1.15509,1.39181 -4.22101,1.61462 -22.21756,1.61462 -11.48266,0 -20.87756,-0.26803 -20.87756,-0.59563 z m 53.77597,-2.4774 c -0.3728,-2.5401 0.0938,-3.48856 2.69033,-5.46906 6.99432,-5.33483 15.30754,-6.80438 23.91078,-4.22679 4.13494,1.23886 13.62292,9.30751 13.62292,11.58504 0,0.8721 -5.23672,1.18384 -19.8865,1.18384 h -19.8865 z m 50.22403,0.79554 c 0,-2.64272 -1.94447,-5.79098 -6.6475,-10.76283 l -3.3489,-3.54032 5.74723,-3.30103 c 5.02204,-2.88451 6.12588,-3.16825 8.74819,-2.24869 14.02284,4.91738 18.36294,6.14381 25.01693,7.0693 15.8868,2.20965 21.48405,1.08667 21.48405,-4.31037 0,-3.42139 -1.93182,-4.62673 -7.45,-4.64838 -9.98514,-0.0392 -29.55,-3.86733 -29.55,-5.78191 0,-0.41022 8.75068,-5.81657 19.44596,-12.01411 11.78491,-6.82895 19.68605,-12.02475 20.0554,-13.18844 1.18,-3.71786 -2.60433,-7.66092 -6.07451,-6.32929 -0.86523,0.33202 -16.45672,9.28148 -34.64776,19.88769 -28.67979,16.72163 -33.39582,19.16189 -35.49195,18.36494 -3.67437,-1.39699 -14.31952,-1.09862 -19.89693,0.55769 -2.73503,0.81222 -7.12847,3.00939 -9.76319,4.88261 -4.658,3.31172 -4.87795,3.36338 -7.9587,1.86934 -1.74258,-0.84508 -3.30575,-1.64218 -3.47372,-1.77134 -0.16797,-0.12916 3.52201,-2.2709 8.19994,-4.75942 11.98985,-6.37824 18.41938,-10.82524 26.59444,-18.39409 7.01285,-6.49282 15.61352,-17.38479 16.03262,-20.30386 0.49265,-3.43129 -0.14494,-5.11007 -2.2343,-5.88298 -3.50835,-1.29782 -5.54033,-0.21416 -8.24166,4.39531 -5.5855,9.53094 -18.35929,20.97008 -32.06646,28.71605 -9.73902,5.50355 -23.24731,10.91267 -29.3055,11.73478 -5.03493,0.68326 -6.17559,0.48059 -10.40002,-1.84787 -3.7853,-2.0864 -4.74776,-3.14787 -4.75925,-5.24883 -0.0131,-2.39295 1.28737,-3.28237 14.23559,-9.73601 18.51448,-9.22796 30.47192,-17.85014 45.25111,-32.62934 18.52598,-18.52598 30.79723,-37.23428 40.34014,-61.50111 2.70359,-6.875 5.94193,-16.55 7.19631,-21.5 1.25439,-4.95 2.64382,-9.41223 3.08764,-9.91606 0.87722,-0.99586 16.5725,0.99316 18.82574,2.38574 1.86825,1.15464 -1.16312,17.63125 -5.47543,29.76087 -4.2426,11.93357 -8.80921,19.99227 -16.54485,29.19671 -6.01824,7.16095 -6.19052,7.51951 -4.80481,10 0.85399,1.5287 2.48845,2.69613 4.02765,2.87681 4.97507,0.58398 18.90199,-18.02282 25.2579,-33.74531 2.46444,-6.09626 6.84472,-23.02245 8.12627,-31.40143 0.5476,-3.58032 0.7712,-3.79745 3.27503,-3.18026 1.47801,0.36433 5.2748,1.81748 8.4373,3.22924 6.72938,3.00402 6.63546,2.57378 4.17682,19.13186 -4.49618,30.28021 -19.07172,56.53757 -39.92682,71.92687 -3.3,2.43512 -6.30377,5.23219 -6.67505,6.21572 -0.93395,2.47407 1.78814,6.01924 4.62175,6.01924 5.78322,0 25.64074,-18.9505 34.13018,-32.57126 9.03452,-14.4953 16.44607,-35.43587 18.03663,-50.96063 0.36764,-3.58838 1.02965,-6.74757 1.47113,-7.02042 1.11225,-0.68741 5.5141,7.07292 7.82989,13.80389 1.05812,3.07547 5.87497,21.71451 10.70413,41.42009 10.29205,41.99716 10.55392,44.75234 5.24311,55.16304 -4.98229,9.76668 -8.70942,12.09649 -36.65905,22.91529 l -23.89674,9.25 h -15.15299 c -15.10175,0 -15.15299,-0.008 -15.15299,-2.27749 z m -116.75,-33.87529 -5.25,-3.04026 v -20.70348 c 0,-21.77134 -0.26206,-23.10348 -4.54501,-23.10348 -4.74446,0 -5.38592,2.34436 -5.68052,20.76066 l -0.27447,17.15726 -7.63404,-4.4258 -7.63404,-4.4258 -0.60955,-31.78316 c -0.33525,-17.48074 -0.86255,-41.51091 -1.17179,-53.40039 l -0.56224,-21.61722 4.49865,-1.13278 c 8.19143,-2.06262 7.61301,-3.48769 7.61301,18.75645 0,18.03312 0.17687,20.10764 1.89533,22.22985 1.63099,2.01419 2.29347,2.2007 4.75,1.33733 l 2.85467,-1.0033 0.26902,-22.18481 0.26902,-22.1848 3.73098,-0.59326 c 4.86406,-0.77342 10.28505,-2.06692 12.48098,-2.97808 1.65664,-0.68739 1.75,2.90711 1.75,67.38086 0,37.45885 -0.3375,68.08168 -0.75,68.05074 -0.4125,-0.0309 -3.1125,-1.42438 -6,-3.09653 z m 16.75,-17.63863 v -9.79141 l 7.18833,-1.687 c 13.92533,-3.26809 29.10601,-12.04111 41.09797,-23.75082 7.03221,-6.86669 7.63985,-8.70223 3.88283,-11.72936 -2.55549,-2.05903 -3.76924,-1.52148 -10.87133,4.8148 -12.49839,11.15069 -26.91073,19.21196 -38.0478,21.28132 l -3.25,0.60388 V 341.232 329.77605 l 2.75,-0.559 c 21.6642,-4.40381 37.62617,-11.26143 50.99304,-21.90774 14.29227,-11.38336 25.98588,-27.88832 32.33612,-45.64083 l 3.12057,-8.72376 5.15013,3.11079 c 2.83258,1.71094 5.26795,3.16973 5.41193,3.24175 0.66484,0.33255 -5.15383,20.53122 -8.14745,28.28267 -13.06626,33.83287 -34.88677,61.69339 -63.20443,80.69971 -8.56281,5.74721 -24.88859,14.45831 -27.09682,14.45831 -0.99472,0 -1.31309,-2.37403 -1.31309,-9.79141 z m 0,-88.55671 v -34.60577 l 2.52401,-1.6538 c 3.32271,-2.17712 13.33321,-14.70082 16.40214,-20.52001 l 2.42615,-4.60036 5.07385,2.30578 c 10.83937,4.92591 25.24059,5.49352 36.97227,1.45723 l 5.61375,-1.93142 2.1117,4.19824 c 1.16144,2.30903 3.82877,6.73678 5.92739,9.83946 l 3.81568,5.64123 -1.4006,5.35877 c -3.45299,13.21134 -10.98109,27.63674 -19.92348,38.17753 -12.73892,15.01591 -35.73069,27.78011 -54.53203,30.27419 l -5.01083,0.66471 z m 87.61584,-48.27501 c -2.42737,-3.09272 -5.58681,-7.94233 -7.02097,-10.77691 l -2.60758,-5.15379 6.9279,-7.08059 c 4.8447,-4.95147 7.32737,-6.82734 8.25636,-6.2384 2.15521,1.36633 10.69601,0.99267 13.78157,-0.60294 2.9162,-1.50802 7.04529,-7.15627 7.04888,-9.64227 10e-4,-0.76009 2.44896,-6.26145 5.4397,-12.22526 8.24019,-16.43171 8.48506,-25.00179 0.90453,-31.65758 l -3.53166,-3.10084 -0.27728,-12.19914 c -0.20657,-9.08847 -0.81664,-13.87499 -2.39252,-18.77128 -3.80973,-11.8369 -12.70382,-22.90477 -26.35252,-32.793269 -5.36356,-3.885903 -5.83637,-4.572453 -7.84041,-11.384938 -5.47786,-18.621268 -16.55964,-26.517591 -35.85356,-25.547458 -9.83057,0.494298 -16.6126,2.99812 -21.93757,8.099018 -3.8,3.640097 -7.58575,10.543549 -8.60898,15.698776 -1.69205,8.524887 -2.60226,9.925825 -10.13005,15.591401 -18.77206,14.12826 -25.84501,28.41522 -25.23019,50.9635 0.30801,11.29628 0.30425,11.3171 -2.32045,12.86488 -4.20909,2.48209 -6.21349,7.86702 -5.56996,14.96401 0.4196,4.6274 1.88131,8.7814 6.18862,17.58728 3.1016,6.34091 6.39775,13.10393 7.32478,15.02893 2.13996,4.44366 8.85564,8 15.10692,8 4.07649,0 4.89937,0.43758 8.78811,4.67323 2.35977,2.57027 4.28627,5.15777 4.28111,5.75 -0.0195,2.23089 -6.04404,11.47405 -11.0456,16.94655 l -5.19253,5.68145 -5.62624,-3.14815 c -20.40533,-11.41774 -39.40773,-32.61489 -48.225,-53.79494 -10.48868,-25.19492 -11.70849,-54.51024 -3.31315,-79.62367 18.89566,-56.523578 78.23386,-88.659193 135.70225,-73.491868 18.90819,4.990338 34.50245,13.949736 49.55589,28.471442 23.51313,22.682556 35.3292,52.490826 33.87114,85.446336 -1.45455,32.87624 -16.68333,62.77156 -42.40026,83.23514 -5.93985,4.72649 -20.78257,13.85448 -22.52828,13.85448 -0.41778,0 -2.74563,-2.53041 -5.173,-5.62313 z m -51.01136,-17.97005 c -16.12738,-3.90238 -29.49147,-17.992 -32.59683,-34.36647 -1.3411,-7.0716 -1.28586,-44.49824 0.0729,-49.39164 0.62662,-2.2567 2.89063,-5.67252 5.4681,-8.25 3.87213,-3.87214 4.92815,-4.39871 8.82124,-4.39871 3.04758,0 6.86424,1.16586 12.27632,3.75 7.37845,3.52304 8.4316,3.75 17.40075,3.75 8.9979,0 10.02208,-0.22279 17.80833,-3.87385 9.43547,-4.42439 14.4607,-4.5466 18.83802,-0.45812 5.20688,4.8633 5.69895,7.02254 6.12029,26.85642 0.51585,24.28257 -0.69992,34.27887 -5.30684,43.6336 -5.9887,12.16054 -17.43327,20.76001 -30.94042,23.24868 -7.45485,1.37355 -10.57873,1.2866 -17.96186,-0.49991 z m -43.29893,-22.65682 c -1.12369,-1.2375 -2.3334,-3.47834 -2.68825,-4.97964 -0.35485,-1.5013 -2.03226,-5.08213 -3.72759,-7.9574 -6.76687,-11.47666 -8.54763,-19.5383 -4.88286,-22.1052 1.7624,-1.23444 2.53695,-1.14999 6.35889,0.69329 l 4.35205,2.09895 0.48787,11.5 c 0.33228,7.83243 1.12508,13.33379 2.4859,17.25 2.1623,6.22274 1.27208,7.52858 -2.38601,3.5 z m 103.51921,1.74143 c -0.27971,-0.27971 0.30937,-2.93137 1.30906,-5.89256 1.03408,-3.06306 2.1084,-10.17156 2.49215,-16.48992 l 0.67453,-11.10591 4.50698,-2.51901 c 4.9026,-2.74011 7.55526,-2.54327 9.28512,0.68899 1.96513,3.67189 0.0442,9.41278 -8.47442,25.32698 -0.88322,1.65 -1.60863,3.68737 -1.61202,4.52749 -0.0156,3.86656 -5.86935,7.77599 -8.1814,5.46394 z M 219.75358,150.2217 c -2.22885,-2.82362 -2.33333,-3.60093 -1.94682,-14.48375 0.3507,-9.87448 0.7929,-12.33699 3.1284,-17.42139 3.92739,-8.54997 8.79477,-14.44754 17.77037,-21.531526 9.77509,-7.71498 11.47141,-10.060656 13.45225,-18.601862 1.99218,-8.590124 3.63442,-11.737118 7.70001,-14.755427 4.6376,-3.442969 9.09637,-4.692967 16.65027,-4.667834 12.69074,0.04222 19.2887,5.433948 23.485,19.191476 2.7329,8.959757 4.3977,11.072003 14.31844,18.166753 12.68356,9.07056 19.66325,20.51685 21.51741,35.28733 1.28835,10.26314 0.60047,15.26701 -2.61218,19.00195 l -2.30296,2.67735 -0.53399,-10.46261 c -0.6447,-12.63194 -3.02661,-19.02162 -9.21835,-24.72897 -8.08513,-7.45261 -17.18979,-7.97839 -29.84833,-1.72369 -10.27598,5.07746 -15.97214,4.97279 -27.87961,-0.51232 -14.14042,-6.51371 -23.1402,-5.46099 -32.0253,3.74604 -5.78477,5.99437 -8.07071,12.2307 -8.73071,23.81848 l -0.56864,9.98374 z"
           id="path535" />
      </g>
      <text
         xml:space="preserve"
         style="font-weight:bold;font-size:582.105px;font-family:Krub;-inkscape-font-specification:'Krub Bold';text-align:end;text-anchor:end;opacity:1;fill:url(#linearGradient3403);fill-opacity:1;stroke-width:17.4632;stroke-linecap:round"
         x="3640.4084"
         y="473.71609"
         id="text2524"><tspan
           sodipodi:role="line"
           id="tspan2522"
           x="3640.4084"
           y="473.71609"
           style="font-style:normal;font-variant:normal;font-weight:500;font-stretch:normal;font-family:Montserrat;-inkscape-font-specification:'Montserrat Medium';fill:url(#linearGradient3403);fill-opacity:1;stroke-width:17.4632">GAUTAMA</tspan></text>
    </g>
  </g>
</svg>
